<svg width="64" height="64" viewBox="0 0 64 64" fill="none" xmlns="http://www.w3.org/2000/svg">
<path d="M60 2.5H4C3.60218 2.5 3.22064 2.65804 2.93934 2.93934C2.65804 3.22064 2.5 3.60218 2.5 4C2.5 4.39782 2.65804 4.77936 2.93934 5.06066C3.22064 5.34196 3.60218 5.5 4 5.5H6.64V41.29C6.64264 42.7479 7.22296 44.1453 8.25383 45.1762C9.28471 46.207 10.6821 46.7874 12.14 46.79H30.5V50.46C29.1872 50.8229 28.0504 51.6494 27.3004 52.7864C26.5504 53.9234 26.238 55.2937 26.4211 56.6434C26.6042 57.9931 27.2704 59.2306 28.2962 60.1267C29.3221 61.0227 30.6379 61.5165 32 61.5165C33.3621 61.5165 34.6779 61.0227 35.7038 60.1267C36.7296 59.2306 37.3958 57.9931 37.5789 56.6434C37.762 55.2937 37.4496 53.9234 36.6996 52.7864C35.9496 51.6494 34.8128 50.8229 33.5 50.46V46.79H51.86C53.3179 46.7874 54.7153 46.207 55.7462 45.1762C56.777 44.1453 57.3574 42.7479 57.36 41.29V5.5H60C60.3978 5.5 60.7794 5.34196 61.0607 5.06066C61.342 4.77936 61.5 4.39782 61.5 4C61.5 3.60218 61.342 3.22064 61.0607 2.93934C60.7794 2.65804 60.3978 2.5 60 2.5ZM34.63 55.87C34.632 56.3906 34.4794 56.9001 34.1916 57.3339C33.9039 57.7677 33.4938 58.1063 33.0134 58.3069C32.533 58.5075 32.0039 58.561 31.4931 58.4607C30.9822 58.3603 30.5127 58.1106 30.1439 57.7432C29.7751 57.3758 29.5236 56.9072 29.4213 56.3968C29.319 55.8863 29.3705 55.357 29.5693 54.8759C29.768 54.3947 30.1051 53.9834 30.5378 53.6939C30.9705 53.4045 31.4794 53.25 32 53.25C32.6958 53.25 33.3632 53.5257 33.8562 54.0168C34.3491 54.5078 34.6274 55.1742 34.63 55.87ZM54.36 41.29C54.36 41.953 54.0966 42.5889 53.6278 43.0578C53.1589 43.5266 52.523 43.79 51.86 43.79H12.14C11.477 43.79 10.8411 43.5266 10.3722 43.0578C9.90339 42.5889 9.64 41.953 9.64 41.29V5.5H54.36V41.29Z" fill="#233C67"/>
<path d="M19.4099 26.1301H23.1599C23.4283 26.1301 23.6917 26.0576 23.9222 25.9203C24.1528 25.783 24.342 25.586 24.4699 25.3501L27.7699 19.4301L31.4599 34.2701C31.5332 34.557 31.6897 34.8158 31.9098 35.0138C32.1298 35.2119 32.4036 35.3405 32.6966 35.3832C32.9896 35.426 33.2887 35.3811 33.5562 35.2542C33.8237 35.1273 34.0477 34.924 34.1999 34.6701L39.1999 26.1301H44.5599C44.9577 26.1301 45.3393 25.972 45.6206 25.6907C45.9019 25.4094 46.0599 25.0279 46.0599 24.6301C46.0599 24.2322 45.9019 23.8507 45.6206 23.5694C45.3393 23.2881 44.9577 23.1301 44.5599 23.1301H38.3799C38.1186 23.1288 37.8614 23.1955 37.6335 23.3234C37.4057 23.4514 37.2149 23.6363 37.0799 23.8601L33.4799 30.0001L29.7599 15.0001C29.6838 14.7109 29.523 14.4511 29.2982 14.2539C29.0733 14.0568 28.7947 13.9314 28.498 13.8938C28.2014 13.8561 27.9002 13.908 27.6333 14.0428C27.3664 14.1776 27.1458 14.389 26.9999 14.6501L22.2899 23.1301H19.4099C19.0121 23.1301 18.6306 23.2881 18.3493 23.5694C18.0679 23.8507 17.9099 24.2322 17.9099 24.6301C17.9099 25.0279 18.0679 25.4094 18.3493 25.6907C18.6306 25.972 19.0121 26.1301 19.4099 26.1301Z" fill="#28519E"/>
</svg>
